HIERARCHY
ROOT pelvis
{
	OFFSET 0.003123 -0.351407 0.012037
	CHANNELS 6 Xposition Yposition Zposition Zrotation Yrotation Xrotation 
	JOINT left_hip
	{
		OFFSET 0.058189 -0.092763 -0.026001
		CHANNELS 3 Zrotation Yrotation Xrotation
		JOINT left_knee
		{
			OFFSET 0.054695 -0.378753 -0.009396
			CHANNELS 3 Zrotation Yrotation Xrotation
			JOINT left_ankle
			{
				OFFSET -0.043453 -0.403059 -0.031876
				CHANNELS 3 Zrotation Yrotation Xrotation
				JOINT left_foot
				{
					OFFSET 0.047257 -0.057997 0.118216
					CHANNELS 3 Zrotation Yrotation Xrotation
					End Site
					{
						OFFSET 0.000000 0.000000 0.000000
					}
				}
			}
		}
	}
	JOINT right_hip
	{
		OFFSET -0.063267 -0.103908 -0.021250
		CHANNELS 3 Zrotation Yrotation Xrotation
		JOINT right_knee
		{
			OFFSET -0.044210 -0.362380 -0.016824
			CHANNELS 3 Zrotation Yrotation Xrotation
			JOINT right_ankle
			{
				OFFSET 0.015417 -0.410728 -0.020192
				CHANNELS 3 Zrotation Yrotation Xrotation
				JOINT right_foot
				{
					OFFSET -0.038812 -0.058328 0.119049
					CHANNELS 3 Zrotation Yrotation Xrotation
					End Site
					{
						OFFSET 0.000000 0.000000 0.000000
					}
				}
			}
		}
	}
	JOINT spine_1
	{
		OFFSET -0.002763 0.109891 -0.027618
		CHANNELS 3 Zrotation Yrotation Xrotation
		JOINT spine_2
		{
			OFFSET 0.009448 0.131853 -0.005940
			CHANNELS 3 Zrotation Yrotation Xrotation
			JOINT spine_3
			{
				OFFSET -0.011330 0.052235 0.028447
				CHANNELS 3 Zrotation Yrotation Xrotation
				JOINT neck
				{
					OFFSET -0.012164 0.165167 -0.031615
					CHANNELS 3 Zrotation Yrotation Xrotation
					JOINT head
					{
						OFFSET 0.024783 0.160452 0.020737
						CHANNELS 3 Zrotation Yrotation Xrotation
						End Site
						{
							OFFSET 0.000000 0.000000 0.000000
						}
					}
				}
				JOINT left_collar
				{
					OFFSET 0.046364 0.084944 -0.007220
					CHANNELS 3 Zrotation Yrotation Xrotation
					JOINT left_shoulder
					{
						OFFSET 0.119239 0.057728 -0.015461
						CHANNELS 3 Zrotation Yrotation Xrotation
						JOINT left_elbow
						{
							OFFSET 0.254123 -0.072151 -0.042459
							CHANNELS 3 Zrotation Yrotation Xrotation
							JOINT left_wrist
							{
								OFFSET 0.251987 0.023221 -0.002472
								CHANNELS 3 Zrotation Yrotation Xrotation
								JOINT left_index_1
								{
									OFFSET 0.101902 -0.008688 0.019351
									CHANNELS 3 Zrotation Yrotation Xrotation
									JOINT left_index_2
									{
										OFFSET 0.030149 -0.011154 0.001151
										CHANNELS 3 Zrotation Yrotation Xrotation
										JOINT left_index_3
										{
											OFFSET 0.006504 -0.021577 -0.002433
											CHANNELS 3 Zrotation Yrotation Xrotation
											End Site
											{
												OFFSET 0.000000 0.000000 0.000000
											}
										}
									}
								}
								JOINT left_middle_1
								{
									OFFSET 0.109398 -0.006328 -0.003981
									CHANNELS 3 Zrotation Yrotation Xrotation
									JOINT left_middle_2
									{
										OFFSET 0.026472 -0.015218 -0.004641
										CHANNELS 3 Zrotation Yrotation Xrotation
										JOINT left_middle_3
										{
											OFFSET 0.005022 -0.023347 -0.001911
											CHANNELS 3 Zrotation Yrotation Xrotation
											End Site
											{
												OFFSET 0.000000 0.000000 0.000000
											}
										}
									}
								}
								JOINT left_pinky_1
								{
									OFFSET 0.084047 -0.014539 -0.043750
									CHANNELS 3 Zrotation Yrotation Xrotation
									JOINT left_pinky_2
									{
										OFFSET 0.012124 -0.014448 -0.005375
										CHANNELS 3 Zrotation Yrotation Xrotation
										JOINT left_pinky_3
										{
											OFFSET 0.003798 -0.018853 0.000167
											CHANNELS 3 Zrotation Yrotation Xrotation
											End Site
											{
												OFFSET 0.000000 0.000000 0.000000
											}
										}
									}
								}
								JOINT left_ring_1
								{
									OFFSET 0.097444 -0.009268 -0.027345
									CHANNELS 3 Zrotation Yrotation Xrotation
									JOINT left_ring_2
									{
										OFFSET 0.023561 -0.016057 -0.001895
										CHANNELS 3 Zrotation Yrotation Xrotation
										JOINT left_ring_3
										{
											OFFSET 0.004257 -0.023548 0.000814
											CHANNELS 3 Zrotation Yrotation Xrotation
											End Site
											{
												OFFSET 0.000000 0.000000 0.000000
											}
										}
									}
								}
								JOINT left_thumb_1
								{
									OFFSET 0.040636 -0.017977 0.025611
									CHANNELS 3 Zrotation Yrotation Xrotation
									JOINT left_thumb_2
									{
										OFFSET 0.021637 -0.017639 0.011623
										CHANNELS 3 Zrotation Yrotation Xrotation
										JOINT left_thumb_3
										{
											OFFSET 0.024002 -0.008356 0.006548
											CHANNELS 3 Zrotation Yrotation Xrotation
											End Site
											{
												OFFSET 0.000000 0.000000 0.000000
											}
										}
									}
								}
							}
						}
					}
				}
				JOINT right_collar
				{
					OFFSET -0.047695 0.084339 -0.013400
					CHANNELS 3 Zrotation Yrotation Xrotation
					JOINT right_shoulder
					{
						OFFSET -0.102578 0.053524 -0.012669
						CHANNELS 3 Zrotation Yrotation Xrotation
						JOINT right_elbow
						{
							OFFSET -0.271150 -0.036492 -0.026467
							CHANNELS 3 Zrotation Yrotation Xrotation
							JOINT right_wrist
							{
								OFFSET -0.249267 -0.004533 -0.015325
								CHANNELS 3 Zrotation Yrotation Xrotation
								JOINT right_index_1
								{
									OFFSET -0.099881 -0.011783 0.019600
									CHANNELS 3 Zrotation Yrotation Xrotation
									JOINT right_index_2
									{
										OFFSET -0.030148 -0.011154 0.001151
										CHANNELS 3 Zrotation Yrotation Xrotation
										JOINT right_index_3
										{
											OFFSET -0.006505 -0.021577 -0.002432
											CHANNELS 3 Zrotation Yrotation Xrotation
											End Site
											{
												OFFSET 0.000000 0.000000 0.000000
											}
										}
									}
								}
								JOINT right_middle_1
								{
									OFFSET -0.107376 -0.009422 -0.003734
									CHANNELS 3 Zrotation Yrotation Xrotation
									JOINT right_middle_2
									{
										OFFSET -0.026472 -0.015218 -0.004641
										CHANNELS 3 Zrotation Yrotation Xrotation
										JOINT right_middle_3
										{
											OFFSET -0.005022 -0.023347 -0.001911
											CHANNELS 3 Zrotation Yrotation Xrotation
											End Site
											{
												OFFSET 0.000000 0.000000 0.000000
											}
										}
									}
								}
								JOINT right_pinky_1
								{
									OFFSET -0.082027 -0.017634 -0.043503
									CHANNELS 3 Zrotation Yrotation Xrotation
									JOINT right_pinky_2
									{
										OFFSET -0.012123 -0.014448 -0.005374
										CHANNELS 3 Zrotation Yrotation Xrotation
										JOINT right_pinky_3
										{
											OFFSET -0.003798 -0.018852 0.000167
											CHANNELS 3 Zrotation Yrotation Xrotation
											End Site
											{
												OFFSET 0.000000 0.000000 0.000000
											}
										}
									}
								}
								JOINT right_ring_1
								{
									OFFSET -0.095423 -0.012362 -0.027099
									CHANNELS 3 Zrotation Yrotation Xrotation
									JOINT right_ring_2
									{
										OFFSET -0.023561 -0.016057 -0.001895
										CHANNELS 3 Zrotation Yrotation Xrotation
										JOINT right_ring_3
										{
											OFFSET -0.004257 -0.023548 0.000816
											CHANNELS 3 Zrotation Yrotation Xrotation
											End Site
											{
												OFFSET 0.000000 0.000000 0.000000
											}
										}
									}
								}
								JOINT right_thumb_1
								{
									OFFSET -0.038613 -0.021074 0.025861
									CHANNELS 3 Zrotation Yrotation Xrotation
									JOINT right_thumb_2
									{
										OFFSET -0.021636 -0.017639 0.011623
										CHANNELS 3 Zrotation Yrotation Xrotation
										JOINT right_thumb_3
										{
											OFFSET -0.024004 -0.008353 0.006547
											CHANNELS 3 Zrotation Yrotation Xrotation
											End Site
											{
												OFFSET 0.000000 0.000000 0.000000
											}
										}
									}
								}
							}
						}
					}
				}
			}
		}
	}
}
MOTION
Frames: 4
Frame Time: 0.050000
0.926239 0.992676 0.331219 -7.245785 -41.844125 7.082590 -38.280408 -1.044221 -20.693472 43.503934 0.483337 1.948424 -44.541855 35.088104 85.177022 0.000000 0.000000 0.000000 39.558660 3.181858 1.526909 -18.765075 0.052459 -22.670653 -1.509705 -8.370714 109.457385 0.000000 0.000000 0.000000 2.897258 -1.813609 25.620876 1.516345 -3.408106 -71.146513 -56.250708 -48.602346 81.996199 -2.146533 2.571129 -17.977333 0.000000 0.000000 0.000000 31.008106 -27.799388 82.748479 165.539137 -44.343568 -101.477214 86.202494 42.633460 24.250228 9.447931 -2.440704 -57.998483 20.775505 2.934622 6.920458 23.485344 -17.201326 -31.122366 0.000000 0.000000 0.000000 1.206592 -8.696133 -4.219221 26.893428 -5.041930 -16.783164 0.000000 0.000000 0.000000 -1.941757 -27.388071 -24.429689 25.685385 0.303776 9.064430 0.000000 0.000000 0.000000 -5.292369 -14.696552 -5.685181 32.506236 -0.697659 -13.422063 0.000000 0.000000 0.000000 54.687064 0.208727 -2.578753 -28.351665 -7.015226 8.284826 0.000000 0.000000 0.000000 -13.767632 -40.658697 -101.469238 -24.506358 -80.117961 25.467713 145.205796 -17.478516 -35.846658 -1.957824 -2.757532 63.066538 13.639186 -1.168854 -4.152847 -30.670885 1.878234 11.791876 0.000000 0.000000 0.000000 -6.133491 5.914875 -3.356736 -11.762192 0.449222 24.578779 0.000000 0.000000 0.000000 -57.241237 -5.112771 -8.541078 12.952451 -29.881666 26.520607 0.000000 0.000000 0.000000 -20.984210 -0.369305 -6.813427 -0.265289 -9.829792 21.898457 0.000000 0.000000 0.000000 11.018848 -20.607058 11.922089 0.683327 12.956396 -3.761969 0.000000 0.000000 0.000000 
0.926239 0.988163 0.331219 -7.225082 -41.017359 7.196571 -40.020240 -0.629061 -19.681816 45.783230 1.988715 -0.274542 -43.458342 36.348180 87.030576 0.000000 0.000000 0.000000 39.140660 2.865526 1.697624 -17.721995 0.126251 -24.200647 -2.232949 -8.635633 110.648927 0.000000 0.000000 0.000000 4.590143 -2.095716 26.384445 -3.884911 -3.244506 -76.051574 -46.821381 -44.034648 78.817570 -2.104953 1.554224 -14.544746 0.000000 0.000000 0.000000 45.157313 -36.707602 83.307576 161.496753 -39.436511 -70.014534 103.516385 65.067593 55.421374 12.465540 -3.215150 -56.592978 23.501300 5.721860 8.869927 38.142303 -14.752099 -35.686772 0.000000 0.000000 0.000000 1.425713 -10.743701 -5.122612 37.802939 -8.114088 -22.586813 0.000000 0.000000 0.000000 1.931470 -36.075924 -31.921484 30.436619 -0.623572 8.605390 0.000000 0.000000 0.000000 -5.363820 -21.321317 -8.292941 41.365872 -0.576435 -15.045245 0.000000 0.000000 0.000000 69.979723 4.665987 6.702664 -31.083214 -16.038648 7.961775 0.000000 0.000000 0.000000 -23.904690 -53.859788 -99.053949 -80.166286 -73.090704 71.547114 151.034092 -24.890959 -59.221124 -2.438786 -2.066763 68.760096 15.613824 -3.444006 -4.525401 -38.485687 0.730735 16.533747 0.000000 0.000000 0.000000 -4.883954 3.155062 -1.558785 -14.875540 1.564294 24.688896 0.000000 0.000000 0.000000 -63.805828 -11.012226 -15.967299 -1.637209 -31.640792 43.809741 0.000000 0.000000 0.000000 -24.140122 -1.883775 -10.454379 -11.145258 -15.455849 33.977559 0.000000 0.000000 0.000000 12.405863 -27.977164 12.960866 0.481485 17.840963 -5.673082 0.000000 0.000000 0.000000 
0.926239 0.985584 0.332044 -6.978778 -40.892577 6.824549 -40.764576 -0.317658 -18.973937 46.457249 2.664765 -1.253995 -41.958055 37.287470 88.105717 0.000000 0.000000 0.000000 38.711704 2.511184 2.156309 -17.107918 0.226613 -25.071074 -2.810571 -8.651214 111.306398 0.000000 0.000000 0.000000 4.337572 -2.028431 26.823523 -3.633269 -3.170324 -76.582173 -46.462886 -43.632474 78.940002 -1.593845 1.698249 -15.212561 0.000000 0.000000 0.000000 45.406487 -36.832035 81.930664 160.978126 -40.154892 -68.199483 106.594030 66.562546 59.959135 12.629883 -3.118540 -56.592345 27.062625 8.268122 12.365018 39.965251 -19.556077 -43.201075 0.000000 0.000000 0.000000 3.576066 -8.702875 -4.428035 36.174658 -8.956023 -23.793304 0.000000 0.000000 0.000000 2.141366 -35.813643 -32.162398 29.899729 -0.535161 6.174053 0.000000 0.000000 0.000000 -6.249610 -24.237755 -8.936975 43.290792 -0.226728 -12.951490 0.000000 0.000000 0.000000 72.283291 4.610760 8.102407 -32.239850 -16.771582 8.404923 0.000000 0.000000 0.000000 -24.458476 -54.889663 -98.809767 -84.693274 -71.305956 74.773321 152.380974 -26.222540 -63.944405 -2.200346 -2.172948 71.277138 15.104727 -5.720586 -3.590372 -32.897677 1.182549 11.169322 0.000000 0.000000 0.000000 -6.749510 3.542245 -1.986679 -13.212844 -1.805212 25.248909 0.000000 0.000000 0.000000 -63.545305 -13.693232 -15.419545 -4.034501 -31.854517 46.798055 0.000000 0.000000 0.000000 -24.189752 -5.482137 -10.567495 -6.624579 -20.724399 28.782755 0.000000 0.000000 0.000000 11.397833 -28.621640 12.893494 3.586792 21.692068 -5.361732 0.000000 0.000000 0.000000 
0.926239 0.988163 0.331219 -6.599040 -39.149446 6.571140 -40.540589 -0.465239 -18.236908 45.411828 2.315427 -1.490662 -42.328489 36.188897 87.858407 0.000000 0.000000 0.000000 38.965500 2.777411 1.242029 -18.382121 -0.112380 -24.237026 -1.199866 -9.464641 110.526677 0.000000 0.000000 0.000000 4.669418 -2.132783 26.484956 -4.506484 -3.906860 -76.208170 -45.745501 -44.332808 78.358116 -1.837977 1.453400 -14.117157 0.000000 0.000000 0.000000 47.452582 -38.418435 82.127690 159.348728 -39.180925 -63.215601 113.811040 68.214772 68.779304 12.924709 -3.614875 -54.521226 26.226676 7.837377 11.301989 41.304880 -14.871208 -39.062328 0.000000 0.000000 0.000000 1.825063 -11.789821 -5.639822 41.051904 -8.841689 -24.450798 0.000000 0.000000 0.000000 4.860917 -38.731344 -35.473890 31.464477 -0.771549 9.207653 0.000000 0.000000 0.000000 -5.128111 -24.466519 -9.684144 43.264998 -0.177899 -14.358620 0.000000 0.000000 0.000000 73.132105 4.789366 7.421723 -31.101059 -11.664712 8.406839 0.000000 0.000000 0.000000 -29.561862 -57.977731 -96.411554 -88.218420 -67.085781 74.355370 155.481802 -29.362976 -76.192855 -2.942232 -1.795446 72.626325 18.198864 -5.130960 -5.535848 -41.099032 0.762608 15.341234 0.000000 0.000000 0.000000 -4.921997 3.596401 -2.082835 -16.351435 2.171710 25.367385 0.000000 0.000000 0.000000 -67.698807 -14.835541 -21.204388 -12.999447 -29.139179 54.638048 0.000000 0.000000 0.000000 -24.594694 -2.247046 -12.387120 -15.759776 -17.567473 35.517830 0.000000 0.000000 0.000000 13.023834 -33.231539 13.265600 0.838186 20.145900 -6.487121 0.000000 0.000000 0.000000 
